<?xml version="1.0" standalone="no"?>
<!DOCTYPE svg PUBLIC "-//W3C//DTD SVG 20010904//EN"
 "http://www.w3.org/TR/2001/REC-SVG-20010904/DTD/svg10.dtd">
<svg version="1.0" xmlns="http://www.w3.org/2000/svg"
 width="1280.000000pt" height="1280.000000pt" viewBox="0 0 1280.000000 1280.000000"
 preserveAspectRatio="xMidYMid meet">
<g transform="translate(0.000000,1280.000000) scale(0.100000,-0.100000)"
fill="#000000" stroke="none">
<path d="M7375 12790 c-44 -5 -141 -14 -215 -20 -1371 -112 -2650 -781 -3542
-1852 -418 -502 -728 -1054 -928 -1658 -127 -381 -195 -697 -242 -1125 -18
-162 -18 -798 0 -960 82 -751 291 -1407 652 -2050 72 -128 85 -157 88 -206 2
-31 -1 -74 -8 -95 -10 -32 -268 -295 -1404 -1434 -766 -767 -1415 -1424 -1443
-1460 -160 -207 -265 -435 -308 -670 -26 -141 -29 -205 -15 -284 51 -289 116
-419 304 -614 213 -220 352 -295 652 -351 111 -21 173 -14 394 39 189 46 365
131 547 266 50 37 579 558 1478 1455 1143 1140 1407 1399 1439 1409 21 7 64
10 95 8 49 -3 78 -16 211 -90 635 -356 1270 -560 2005 -645 191 -22 815 -25
1000 -5 1098 120 2024 520 2860 1235 487 417 918 963 1216 1542 367 713 548
1425 586 2309 6 135 0 234 -33 586 -97 1030 -510 2015 -1183 2820 -129 155
-417 447 -576 585 -793 686 -1756 1110 -2790 1230 -321 37 -681 52 -840 35z
m702 -1364 c350 -47 654 -125 958 -246 738 -294 1361 -806 1799 -1477 319
-490 511 -1017 593 -1629 22 -164 25 -722 5 -884 -97 -778 -385 -1459 -861
-2035 -101 -121 -323 -348 -447 -454 -529 -458 -1174 -763 -1857 -881 -426
-73 -878 -73 -1315 1 -1188 199 -2236 976 -2778 2058 -547 1094 -547 2368 1
3461 190 379 404 671 724 990 259 259 447 406 736 579 506 303 1076 484 1685
535 110 9 651 -3 757 -18z"/>
<path d="M7424 10460 c-257 -27 -505 -119 -734 -271 -128 -85 -334 -291 -419
-419 -158 -237 -244 -477 -272 -758 -33 -316 54 -462 318 -534 67 -18 105 -21
273 -21 219 0 298 14 411 75 122 64 175 159 189 337 7 89 13 113 44 176 43 88
103 145 194 188 59 28 79 32 175 35 90 4 119 1 176 -18 177 -56 291 -222 279
-405 -9 -134 -78 -247 -322 -530 -457 -527 -594 -757 -677 -1135 -19 -87 -23
-135 -24 -275 0 -197 9 -227 91 -315 96 -103 239 -145 494 -144 246 0 363 37
466 146 65 68 92 122 139 273 70 224 149 352 395 640 262 305 368 452 460 635
93 187 140 335 165 528 51 385 -43 774 -268 1107 -81 119 -293 331 -412 412
-330 223 -724 317 -1141 273z"/>
<path d="M7290 6021 c-57 -18 -110 -53 -153 -101 -75 -83 -77 -97 -77 -465 l0
-322 31 -61 c33 -67 85 -118 158 -154 45 -23 51 -23 376 -23 l330 0 57 28 c68
33 121 90 157 166 l26 56 0 310 c0 274 -2 316 -18 362 -23 66 -94 146 -161
181 l-51 27 -325 2 c-179 1 -336 -2 -350 -6z"/>
</g>
</svg>
